<svg width="30" height="19" viewBox="0 0 30 19" fill="none" xmlns="http://www.w3.org/2000/svg">
<rect x="0.485714" y="0.485714" width="28.1787" height="17.5841" rx="3.4" fill="white" stroke="#C8D4EA" stroke-width="0.971429"/>
<path d="M15.1094 8.04913C15.0967 9.05966 15.9987 9.62361 16.6781 9.95888C17.3762 10.3029 17.6107 10.5235 17.608 10.8311C17.6027 11.302 17.0512 11.5097 16.5349 11.5178C15.6343 11.532 15.1107 11.2716 14.6944 11.0746L14.37 12.612C14.7877 12.807 15.561 12.977 16.3631 12.9844C18.2455 12.9844 19.4772 12.0433 19.4839 10.5842C19.4912 8.73249 16.9546 8.62995 16.9719 7.80224C16.9779 7.55129 17.2144 7.28348 17.7326 7.21535C17.9891 7.18095 18.6972 7.15464 19.4998 7.52903L19.8149 6.04158C19.3833 5.88238 18.8284 5.72992 18.1376 5.72992C16.3657 5.72992 15.1194 6.68378 15.1094 8.04913ZM22.8425 5.85809C22.4987 5.85809 22.209 6.06114 22.0797 6.3728L19.3906 12.8751H21.2717L21.6461 11.8275H23.9449L24.1621 12.8751H25.82L24.3732 5.85809H22.8425ZM23.1056 7.75367L23.6485 10.3886H22.1617L23.1056 7.75367ZM12.8286 5.85809L11.3458 12.8751H13.1383L14.6205 5.85809H12.8286ZM10.1767 5.85809L8.31092 10.6341L7.5562 6.57315C7.46761 6.11983 7.11789 5.85809 6.72954 5.85809H3.67935L3.63672 6.06182C4.26288 6.19943 4.9743 6.42137 5.40528 6.65882C5.66907 6.80386 5.74434 6.93068 5.83094 7.27539L7.26044 12.8751H9.15491L12.0592 5.85809H10.1767Z" fill="url(#paint0_linear)"/>
<defs>
<linearGradient id="paint0_linear" x1="13.8353" y1="13.1299" x2="14.048" y2="5.67962" gradientUnits="userSpaceOnUse">
<stop stop-color="#222357"/>
<stop offset="1" stop-color="#254AA5"/>
</linearGradient>
</defs>
</svg>
