<svg width="30" height="19" viewBox="0 0 30 19" fill="none" xmlns="http://www.w3.org/2000/svg">
<rect width="29.1501" height="18.5555" rx="3.89" fill="#1169FF"/>
<path fill-rule="evenodd" clip-rule="evenodd" d="M12.3079 10.076L10.7663 6.22266H8.7966V11.7639L6.57 6.22266H5.74214H4.88578L2.65918 11.9868H4.00084L4.45756 10.6811H5.74214H6.99822L7.48352 11.9868H10.0527V7.68751L11.7369 11.9867H12.9073L14.6201 7.78298V11.9867H15.8762V6.22266H13.8494L12.3079 10.076V10.076ZM5.74429 9.43951H4.97351L5.74429 7.43317V7.49685L6.51507 9.43942H5.74429V9.43951Z" fill="white"/>
<path fill-rule="evenodd" clip-rule="evenodd" d="M24.6952 7.92614L23.7817 9.00893L24.6952 10.2191L26.0268 11.9706H24.4382L22.9538 10.0598L21.4408 11.9387H16.5879V6.23828H21.5836L23.0109 7.98982L24.4383 6.23828H26.0269L24.6952 7.92614ZM17.8739 10.7609H20.7571L22.1844 9.0094L20.7571 7.48077H17.8739V8.53168H20.6715V9.61447H17.8739V10.7609Z" fill="white"/>
</svg>
