<svg width="30" height="19" viewBox="0 0 30 19" fill="none" xmlns="http://www.w3.org/2000/svg">
<rect width="29.1501" height="18.5555" rx="3.89" fill="#1169FF"/>
<g style="mix-blend-mode:screen">
<rect x="11.855" y="4.22852" width="5.55665" height="10.3814" fill="white" stroke="black" stroke-width="0.484207"/>
<path d="M12.2103 9.42026C12.2111 7.39824 13.1014 5.48709 14.6282 4.22956C12.0177 2.10032 8.26744 2.40937 6.01389 4.93947C3.76034 7.46957 3.76034 11.3709 6.01389 13.901C8.26744 16.4311 12.0177 16.7402 14.6282 14.611C13.0972 13.3569 12.2059 11.4435 12.2103 9.42026Z" fill="white" stroke="black" stroke-width="0.484207"/>
<path d="M24.9151 9.42044C24.9235 11.9448 23.5384 14.2516 21.3502 15.3575C19.162 16.4634 16.5566 16.1734 14.6445 14.6111C16.1798 13.3606 17.0722 11.4449 17.0625 9.42044C17.0617 7.39843 16.1714 5.48727 14.6445 4.22974C16.5566 2.66746 19.162 2.37746 21.3502 3.48337C23.5384 4.58928 24.9235 6.89607 24.9151 9.42044V9.42044Z" fill="white" stroke="black" stroke-width="0.484207"/>
</g>
</svg>
